<svg xmlns="http://www.w3.org/2000/svg" viewBox="0 0 240 240" role="img" aria-labelledby="title description">
  <title id="title">Default pet profile</title>
  <desc id="description">A friendly paw print on a warm cream background.</desc>
  <rect width="240" height="240" rx="120" fill="#fff4dc"/>
  <circle cx="120" cy="120" r="112" fill="none" stroke="#c1ebe9" stroke-width="10"/>
  <g fill="#f5ac53">
    <ellipse cx="82" cy="85" rx="18" ry="25" transform="rotate(-25 82 85)"/>
    <ellipse cx="118" cy="70" rx="18" ry="26"/>
    <ellipse cx="157" cy="85" rx="18" ry="25" transform="rotate(25 157 85)"/>
    <ellipse cx="60" cy="121" rx="17" ry="23" transform="rotate(-42 60 121)"/>
    <path d="M120 105c-31 0-57 30-57 58 0 22 18 34 38 24 12-6 26-6 38 0 20 10 38-2 38-24 0-28-26-58-57-58z"/>
  </g>
</svg>
